<svg width="324" height="300" viewBox="0 0 324 300" fill="none" xmlns="http://www.w3.org/2000/svg">
<path d="M317.123 293.05C317.123 296.579 246.985 299.442 160.48 299.442C73.9761 299.442 3.83807 296.579 3.83807 293.05C3.83807 289.521 73.967 286.65 160.48 286.65C246.994 286.65 317.123 289.512 317.123 293.05Z" fill="black"/>
<path opacity="0.5" d="M317.123 293.05C317.123 296.579 246.985 299.442 160.48 299.442C73.9761 299.442 3.83807 296.579 3.83807 293.05C3.83807 289.521 73.967 286.65 160.48 286.65C246.994 286.65 317.123 289.512 317.123 293.05Z" fill="black"/>
<path d="M295.733 228.548C293.554 231.073 292.082 234.129 291.466 237.406L282.914 242.205V219.527L283.076 219.762L296.714 209.778C298.434 210.048 305.051 210.804 311.118 207.554C318.068 203.782 323.181 190.828 323.181 190.828C323.181 190.828 306.5 188.946 300.846 195.941C297.746 199.573 296.095 204.221 296.21 208.995L282.914 218.735V201.991C285.402 200.831 287.602 199.133 289.354 197.018C291.106 194.904 292.365 192.427 293.041 189.765C295.463 180.34 282.545 161.768 282.545 161.768C282.545 161.768 269.086 180.88 271.742 190.576C274.019 198.786 280.15 201.379 281.977 201.991V238.316L272.408 230.33C272.624 228.422 272.795 222.435 267.465 216.431C261.002 209.166 243.78 209.706 243.78 209.706C243.78 209.706 251.045 224.236 257.284 229.088C262.685 233.319 270.157 231.591 271.949 231.087L282.049 239.504V250.541H267.006L273.128 288.801H291.493L297.615 250.541H282.914V243.24L292.312 237.973C294.599 238.604 300.99 239.918 307.04 236.893C314.575 233.139 320.76 225.037 320.76 225.037C320.76 225.037 302.728 220.473 295.733 228.548Z" fill="black"/>
<path opacity="0.5" d="M295.733 228.548C293.554 231.073 292.082 234.129 291.466 237.406L282.914 242.205V219.527L283.076 219.762L296.714 209.778C298.434 210.048 305.051 210.804 311.118 207.554C318.068 203.782 323.181 190.828 323.181 190.828C323.181 190.828 306.5 188.946 300.846 195.941C297.746 199.573 296.095 204.221 296.21 208.995L282.914 218.735V201.991C285.402 200.831 287.602 199.133 289.354 197.018C291.106 194.904 292.365 192.427 293.041 189.765C295.463 180.34 282.545 161.768 282.545 161.768C282.545 161.768 269.086 180.88 271.742 190.576C274.019 198.786 280.15 201.379 281.977 201.991V238.316L272.408 230.33C272.624 228.422 272.795 222.435 267.465 216.431C261.002 209.166 243.78 209.706 243.78 209.706C243.78 209.706 251.045 224.236 257.284 229.088C262.685 233.319 270.157 231.591 271.949 231.087L282.049 239.504V250.541H267.006L273.128 288.801H291.493L297.615 250.541H282.914V243.24L292.312 237.973C294.599 238.604 300.99 239.918 307.04 236.893C314.575 233.139 320.76 225.037 320.76 225.037C320.76 225.037 302.728 220.473 295.733 228.548Z" fill="black"/>
<path d="M258.436 11.6881H52.4332C46.636 11.6881 41.9364 16.3877 41.9364 22.1849V152.009C41.9364 157.806 46.636 162.506 52.4332 162.506H258.436C264.233 162.506 268.933 157.806 268.933 152.009V22.1849C268.933 16.3877 264.233 11.6881 258.436 11.6881Z" fill="black" stroke="#263238" stroke-miterlimit="10" stroke-linecap="round"/>
<path opacity="0.7" d="M258.436 11.6881H52.4332C46.636 11.6881 41.9364 16.3877 41.9364 22.1849V152.009C41.9364 157.806 46.636 162.506 52.4332 162.506H258.436C264.233 162.506 268.933 157.806 268.933 152.009V22.1849C268.933 16.3877 264.233 11.6881 258.436 11.6881Z" fill="black" stroke="#263238" stroke-miterlimit="10" stroke-linecap="round"/>
<path d="M137.677 96.0049H111.12V110.904H137.677V96.0049Z" fill="white"/>
<path d="M137.677 113.596H111.12V128.495H137.677V113.596Z" fill="white"/>
<path d="M166.935 96.0049H140.378V110.904H166.935V96.0049Z" fill="white"/>
<path d="M196.202 78.4052H169.645V93.3042H196.202V78.4052Z" fill="white"/>
<path d="M196.202 60.8054H169.645V75.7044H196.202V60.8054Z" fill="white"/>
<path d="M196.202 28.2797H169.645V40.505H196.202V28.2797Z" fill="#263238"/>
<path d="M166.935 28.2797H140.378V40.505H166.935V28.2797Z" fill="#263238"/>
<path d="M166.935 113.596H140.378V128.495H166.935V113.596Z" fill="white"/>
<path d="M166.935 43.2056H140.378V58.1046H166.935V43.2056Z" fill="white"/>
<path d="M166.935 60.8054H140.378V75.7044H166.935V60.8054Z" fill="white"/>
<path d="M166.935 78.4052H140.378V93.3042H166.935V78.4052Z" fill="white"/>
<path d="M196.202 113.596H169.645V128.495H196.202V113.596Z" fill="white"/>
<path d="M79.1524 43.2056H50.8398V58.1046H79.1524V43.2056Z" fill="white"/>
<path d="M79.1524 78.4052H50.8398V93.3042H79.1524V78.4052Z" fill="white"/>
<path d="M79.1524 96.0049H50.8398V110.904H79.1524V96.0049Z" fill="white"/>
<path d="M79.1524 60.8054H50.8398V75.7044H79.1524V60.8054Z" fill="white"/>
<path d="M256.482 28.2797H228.17V40.505H256.482V28.2797Z" fill="#263238"/>
<path d="M79.1524 113.596H50.8398V128.495H79.1524V113.596Z" fill="white"/>
<path d="M225.46 43.2056H198.903V58.1046H225.46V43.2056Z" fill="white"/>
<path d="M196.202 96.0049H169.645V110.904H196.202V96.0049Z" fill="white"/>
<path d="M225.46 96.0049H198.903V110.904H225.46V96.0049Z" fill="white"/>
<path d="M225.46 60.8054H198.903V75.7044H225.46V60.8054Z" fill="white"/>
<path d="M225.46 78.4052H198.903V93.3042H225.46V78.4052Z" fill="white"/>
<path d="M225.46 113.596H198.903V128.495H225.46V113.596Z" fill="white"/>
<path d="M196.202 43.2056H169.645V58.1046H196.202V43.2056Z" fill="white"/>
<path d="M256.482 113.596H228.17V128.495H256.482V113.596Z" fill="white"/>
<path d="M225.46 28.2797H198.903V40.505H225.46V28.2797Z" fill="#263238"/>
<path d="M256.482 96.0049H228.17V110.904H256.482V96.0049Z" fill="white"/>
<path d="M225.46 131.195H198.903V146.941H225.46V131.195Z" fill="white"/>
<path d="M256.482 78.4052H228.17V93.3042H256.482V78.4052Z" fill="white"/>
<path d="M166.935 131.195H140.378V146.941H166.935V131.195Z" fill="white"/>
<path d="M196.202 131.195H169.645V146.941H196.202V131.195Z" fill="white"/>
<path d="M256.482 60.8054H228.17V75.7044H256.482V60.8054Z" fill="white"/>
<path d="M256.482 131.195H228.17V146.941H256.482V131.195Z" fill="white"/>
<path d="M79.1524 131.195H50.8398V146.941H79.1524V131.195Z" fill="white"/>
<path d="M256.482 43.2056H228.17V58.1046H256.482V43.2056Z" fill="white"/>
<path d="M79.1524 28.2797H50.8398V40.505H79.1524V28.2797Z" fill="#263238"/>
<path d="M108.41 28.2797H81.8532V40.505H108.41V28.2797Z" fill="#263238"/>
<path d="M108.41 96.0049H81.8532V110.904H108.41V96.0049Z" fill="white"/>
<path d="M137.677 28.2797H111.12V40.505H137.677V28.2797Z" fill="#263238"/>
<path d="M137.677 60.8054H111.12V75.7044H137.677V60.8054Z" fill="white"/>
<path d="M108.41 113.596H81.8532V128.495H108.41V113.596Z" fill="white"/>
<path d="M137.677 43.2056H111.12V58.1046H137.677V43.2056Z" fill="white"/>
<path d="M108.41 43.2056H81.8532V58.1046H108.41V43.2056Z" fill="white"/>
<path d="M137.677 78.4052H111.12V93.3042H137.677V78.4052Z" fill="white"/>
<path d="M108.41 78.4052H81.8532V93.3042H108.41V78.4052Z" fill="white"/>
<path d="M108.41 131.195H81.8532V146.941H108.41V131.195Z" fill="white"/>
<path d="M108.41 60.8054H81.8532V75.7044H108.41V60.8054Z" fill="white"/>
<path d="M137.677 131.195H111.12V146.941H137.677V131.195Z" fill="white"/>
<path d="M63.3352 20.0604C65.4483 20.0604 67.1612 18.3474 67.1612 16.2344C67.1612 14.1213 65.4483 12.4083 63.3352 12.4083C61.2221 12.4083 59.5092 14.1213 59.5092 16.2344C59.5092 18.3474 61.2221 20.0604 63.3352 20.0604Z" fill="white" stroke="#263238" stroke-miterlimit="10" stroke-linecap="round"/>
<path d="M80.1157 16.2344C80.1175 15.4751 79.8939 14.7324 79.4732 14.1004C79.0525 13.4683 78.4536 12.9754 77.7525 12.684C77.0514 12.3926 76.2795 12.3159 75.5347 12.4636C74.79 12.6113 74.1058 12.9768 73.5689 13.5136C73.0321 14.0505 72.6666 14.7347 72.5189 15.4794C72.3712 16.2242 72.4479 16.996 72.7393 17.6972C73.0307 18.3983 73.5236 18.9972 74.1557 19.4179C74.7877 19.8386 75.5304 20.0622 76.2897 20.0604C77.3044 20.0604 78.2776 19.6573 78.9951 18.9398C79.7126 18.2223 80.1157 17.2491 80.1157 16.2344Z" fill="white" stroke="#263238" stroke-miterlimit="10" stroke-linecap="round"/>
<path d="M63.4072 18.7281C62.8748 18.7281 62.3642 18.5166 61.9877 18.1401C61.6112 17.7636 61.3997 17.2529 61.3997 16.7205V3.14484C61.3985 2.88045 61.4495 2.61843 61.5499 2.37382C61.6503 2.12922 61.798 1.90684 61.9845 1.71947C62.171 1.5321 62.3927 1.38342 62.6369 1.28197C62.881 1.18052 63.1428 1.12829 63.4072 1.1283C63.942 1.1283 64.455 1.34075 64.8331 1.71893C65.2113 2.09711 65.4238 2.61002 65.4238 3.14484V16.7205C65.4238 16.9849 65.3715 17.2467 65.2701 17.4909C65.1686 17.735 65.02 17.9567 64.8326 18.1433C64.6452 18.3298 64.4228 18.4775 64.1782 18.5778C63.9336 18.6782 63.6716 18.7292 63.4072 18.7281Z" fill="white" stroke="#263238" stroke-miterlimit="10" stroke-linecap="round"/>
<path d="M76.4788 18.7281C75.9463 18.7281 75.4357 18.5166 75.0592 18.1401C74.6827 17.7636 74.4712 17.2529 74.4712 16.7205V3.14484C74.47 2.88045 74.5211 2.61843 74.6214 2.37382C74.7218 2.12922 74.8695 1.90684 75.056 1.71947C75.2425 1.5321 75.4643 1.38342 75.7084 1.28197C75.9526 1.18052 76.2144 1.12829 76.4788 1.1283C77.0136 1.1283 77.5265 1.34075 77.9047 1.71893C78.2828 2.09711 78.4953 2.61002 78.4953 3.14484V16.7205C78.4953 16.9849 78.4431 17.2467 78.3416 17.4909C78.2402 17.735 78.0915 17.9567 77.9041 18.1433C77.7167 18.3298 77.4944 18.4775 77.2498 18.5778C77.0052 18.6782 76.7431 18.7292 76.4788 18.7281Z" fill="white" stroke="#263238" stroke-miterlimit="10" stroke-linecap="round"/>
<path d="M239.927 16.2344C239.929 15.4751 239.705 14.7324 239.284 14.1004C238.864 13.4683 238.265 12.9754 237.564 12.684C236.863 12.3926 236.091 12.3159 235.346 12.4636C234.601 12.6113 233.917 12.9768 233.38 13.5136C232.843 14.0505 232.478 14.7347 232.33 15.4794C232.182 16.2242 232.259 16.996 232.551 17.6972C232.842 18.3983 233.335 18.9972 233.967 19.4179C234.599 19.8386 235.342 20.0622 236.101 20.0604C237.116 20.0604 238.089 19.6573 238.806 18.9398C239.524 18.2223 239.927 17.2491 239.927 16.2344Z" fill="white" stroke="#263238" stroke-miterlimit="10" stroke-linecap="round"/>
<path d="M249.046 20.0604C251.159 20.0604 252.872 18.3474 252.872 16.2344C252.872 14.1213 251.159 12.4083 249.046 12.4083C246.933 12.4083 245.22 14.1213 245.22 16.2344C245.22 18.3474 246.933 20.0604 249.046 20.0604Z" fill="white" stroke="#263238" stroke-miterlimit="10" stroke-linecap="round"/>
<path d="M236.164 18.7281C235.631 18.7281 235.121 18.5166 234.744 18.1401C234.368 17.7636 234.156 17.2529 234.156 16.7205V3.14484C234.155 2.88045 234.206 2.61843 234.307 2.37382C234.407 2.12922 234.555 1.90684 234.741 1.71947C234.928 1.5321 235.149 1.38342 235.394 1.28197C235.638 1.18052 235.9 1.12829 236.164 1.1283C236.699 1.1283 237.212 1.34075 237.59 1.71893C237.968 2.09711 238.18 2.61002 238.18 3.14484V16.7205C238.18 16.9849 238.128 17.2467 238.027 17.4909C237.925 17.735 237.777 17.9567 237.589 18.1433C237.402 18.3298 237.18 18.4775 236.935 18.5778C236.69 18.6782 236.428 18.7292 236.164 18.7281Z" fill="white" stroke="#263238" stroke-miterlimit="10" stroke-linecap="round"/>
<path d="M249.244 18.7281C248.978 18.7328 248.713 18.6845 248.465 18.5857C248.217 18.487 247.992 18.3398 247.802 18.1529C247.611 17.9661 247.46 17.7431 247.357 17.4972C247.254 17.2512 247.201 16.9872 247.201 16.7205V3.14484C247.201 2.61002 247.413 2.09711 247.792 1.71893C248.17 1.34075 248.683 1.1283 249.217 1.1283C249.482 1.12829 249.744 1.18052 249.988 1.28197C250.232 1.38342 250.454 1.5321 250.64 1.71947C250.827 1.90684 250.974 2.12922 251.075 2.37382C251.175 2.61843 251.226 2.88045 251.225 3.14484V16.7205C251.225 17.2483 251.017 17.7549 250.647 18.1306C250.276 18.5063 249.772 18.721 249.244 18.7281Z" fill="white" stroke="#263238" stroke-miterlimit="10" stroke-linecap="round"/>
<path d="M149.723 20.0604C151.836 20.0604 153.549 18.3474 153.549 16.2344C153.549 14.1213 151.836 12.4083 149.723 12.4083C147.61 12.4083 145.897 14.1213 145.897 16.2344C145.897 18.3474 147.61 20.0604 149.723 20.0604Z" fill="white" stroke="#263238" stroke-miterlimit="10" stroke-linecap="round"/>
<path d="M162.668 20.0604C164.781 20.0604 166.494 18.3474 166.494 16.2344C166.494 14.1213 164.781 12.4083 162.668 12.4083C160.555 12.4083 158.842 14.1213 158.842 16.2344C158.842 18.3474 160.555 20.0604 162.668 20.0604Z" fill="white" stroke="#263238" stroke-miterlimit="10" stroke-linecap="round"/>
<path d="M149.786 18.7281C149.253 18.7281 148.743 18.5166 148.366 18.1401C147.99 17.7636 147.778 17.2529 147.778 16.7205V3.14484C147.777 2.88045 147.828 2.61843 147.928 2.37382C148.029 2.12922 148.176 1.90684 148.363 1.71947C148.549 1.5321 148.771 1.38342 149.015 1.28197C149.259 1.18052 149.521 1.12829 149.786 1.1283C150.32 1.1283 150.833 1.34075 151.211 1.71893C151.59 2.09711 151.802 2.61002 151.802 3.14484V16.7205C151.802 16.9849 151.75 17.2467 151.648 17.4909C151.547 17.735 151.398 17.9567 151.211 18.1433C151.024 18.3298 150.801 18.4775 150.557 18.5778C150.312 18.6782 150.05 18.7292 149.786 18.7281Z" fill="white" stroke="#263238" stroke-miterlimit="10" stroke-linecap="round"/>
<path d="M162.857 18.7281C162.325 18.7281 161.814 18.5166 161.438 18.1401C161.061 17.7636 160.85 17.2529 160.85 16.7205V3.14484C160.848 2.88045 160.899 2.61843 161 2.37382C161.1 2.12922 161.248 1.90684 161.434 1.71947C161.621 1.5321 161.843 1.38342 162.087 1.28197C162.331 1.18052 162.593 1.12829 162.857 1.1283C163.122 1.1283 163.384 1.18045 163.629 1.2818C163.873 1.38314 164.096 1.53168 164.283 1.71893C164.47 1.90618 164.619 2.12848 164.72 2.37314C164.821 2.6178 164.874 2.88002 164.874 3.14484V16.7205C164.874 16.9849 164.821 17.2467 164.72 17.4909C164.619 17.735 164.47 17.9567 164.282 18.1433C164.095 18.3298 163.873 18.4775 163.628 18.5778C163.384 18.6782 163.121 18.7292 162.857 18.7281Z" fill="white" stroke="#263238" stroke-miterlimit="10" stroke-linecap="round"/>
<path d="M69.2228 62.1018L55.8271 73.913" stroke="#263238" stroke-width="2" stroke-linecap="round" stroke-linejoin="round"/>
<path d="M59.9503 62.1018L69.2228 73.1208" stroke="#263238" stroke-width="2" stroke-linecap="round" stroke-linejoin="round"/>
<path d="M217.484 45.3032L204.088 57.1054" stroke="#263238" stroke-width="2" stroke-linecap="round" stroke-linejoin="round"/>
<path d="M208.211 45.3032L217.484 56.3222" stroke="#263238" stroke-width="2" stroke-linecap="round" stroke-linejoin="round"/>
<path d="M129.701 45.3032L116.297 57.1054" stroke="#263238" stroke-width="2" stroke-linecap="round" stroke-linejoin="round"/>
<path d="M120.42 45.3032L129.701 56.3222" stroke="#263238" stroke-width="2" stroke-linecap="round" stroke-linejoin="round"/>
<path d="M248.128 44.9701L234.724 56.7813" stroke="#263238" stroke-width="2" stroke-linecap="round" stroke-linejoin="round"/>
<path d="M238.847 44.9701L248.128 55.9891" stroke="#263238" stroke-width="2" stroke-linecap="round" stroke-linejoin="round"/>
<path d="M198.399 184.688C198.399 184.688 195.617 200.298 195.194 209.283C194.771 218.267 196.904 224.677 197.76 233.661C198.615 242.646 204.169 277.071 204.169 279.853C204.324 282.452 203.57 285.023 202.036 287.127C200.325 289.476 194.762 291.628 195.194 292.465C195.626 293.302 198.183 294.608 202.675 293.113C207.167 291.619 207.383 290.116 209.094 290.116C210.804 290.116 214.441 289.044 213.793 286.515C213.145 283.985 209.976 278.61 210.192 269.194C210.615 247.381 209.544 209.778 209.544 209.778L216.386 188.82L198.399 184.688Z" fill="white" stroke="#263238" stroke-linecap="round" stroke-linejoin="round"/>
<path d="M202.27 286.776L202.036 287.127C200.325 289.476 194.762 291.628 195.194 292.465C195.626 293.302 198.183 294.608 202.675 293.113C207.167 291.619 207.383 290.116 209.094 290.116C210.804 290.116 214.441 289.044 213.793 286.515C213.595 285.704 213.136 284.615 212.614 283.211C210.56 284.776 208.38 286.167 206.096 287.37C205.078 287.748 203.566 287.325 202.27 286.776Z" fill="#263238" stroke="#263238" stroke-linecap="round" stroke-linejoin="round"/>
<path d="M217.367 92.503C217.367 92.503 216.359 89.0641 215.665 86.0033C214.972 82.9424 220.167 81.6191 225.865 81.0519C231.564 80.4848 239.621 84.7339 241.998 91.4857C244.374 98.2376 242.376 123.228 242.619 128.684C242.862 134.139 243.402 149.254 237.865 150.2C232.329 151.145 226.504 151.514 221.661 142.025C216.818 132.537 222.129 107.582 222.705 102.568C223.281 97.5534 217.655 93.2322 217.655 93.2322L217.367 92.503Z" fill="#263238" stroke="#263238" stroke-linecap="round" stroke-linejoin="round"/>
<path d="M229.538 85.4091C229.538 85.4091 229.16 91.1346 232.977 94.1864C236.794 97.2383 241.745 104.485 241.745 110.211" stroke="white" stroke-width="0.5" stroke-linecap="round" stroke-linejoin="round"/>
<path d="M236.794 101.055C236.794 101.055 239.495 110.958 237.172 119.366" stroke="white" stroke-width="0.5" stroke-linecap="round" stroke-linejoin="round"/>
<path d="M207.419 187.371C207.419 187.371 202.918 207.716 207.068 225.298C208.202 230.105 225.694 273.227 227.071 280.123C228.449 287.019 228.449 293.23 231.213 295.643C233.976 298.056 235.714 297.02 234.309 289.089C233.367 284.66 231.854 280.372 229.808 276.333C229.808 276.333 224.632 243.231 223.939 235.993C223.245 228.755 219.113 220.131 219.113 220.131L225.667 191.854L207.419 187.371Z" fill="white" stroke="#263238" stroke-linecap="round" stroke-linejoin="round"/>
<path d="M233.418 285.353C233.085 287.154 232.365 288.711 230.862 288.414C230.158 288.28 229.509 287.941 228.996 287.439C228.484 286.938 228.131 286.297 227.981 285.596C228.656 290.152 229.205 293.906 231.213 295.652C233.967 298.065 235.714 297.029 234.309 289.098C234.084 287.834 233.786 286.584 233.418 285.353Z" fill="#263238" stroke="#263238" stroke-linecap="round" stroke-linejoin="round"/>
<path d="M227.765 283.553H227.684C227.684 283.715 227.729 283.877 227.756 284.03C227.751 283.871 227.754 283.712 227.765 283.553Z" fill="#263238" stroke="#263238" stroke-linecap="round" stroke-linejoin="round"/>
<path d="M213.658 117.629C211.5 118.146 209.616 119.458 208.382 121.302C206.582 124.282 189.81 136.894 188.208 138.262C186.605 139.631 186.831 146.518 190.909 146.518C194.987 146.518 208.796 135.976 208.796 135.976C208.796 135.976 212.92 130.925 214.297 126.343C215.674 121.761 216.638 118.088 213.658 117.629Z" fill="white" stroke="#263238" stroke-linecap="round" stroke-linejoin="round"/>
<path d="M218.24 105.944C216.638 105.944 215.053 109.707 215.053 109.707L213.541 109.932C214.9 108.32 216.638 105.944 216.638 105.944C218.006 103.648 217.538 100.209 216.638 100.443C215.737 100.677 209.76 102.964 208.842 104.107C207.923 105.251 205.169 114.424 204.259 115.342C203.35 116.261 188.208 135.517 186.606 139.649C185.003 143.781 189.351 148.822 193.024 146.302C196.697 143.781 199.902 135.976 201.288 130.511C202.675 125.047 208.4 114.685 208.4 114.685C208.4 114.685 209.733 113.605 211.101 112.398C212.596 112.022 214.069 111.562 215.512 111.021C216.413 110.562 218.951 107.348 218.951 107.348C218.951 107.348 219.842 105.944 218.24 105.944Z" fill="white" stroke="#263238" stroke-linecap="round" stroke-linejoin="round"/>
<path d="M214.387 98.5256L209.742 105.89C209.494 106.283 209.398 106.754 209.473 107.213C209.547 107.672 209.787 108.088 210.147 108.383L212.262 110.121C212.468 110.289 212.707 110.412 212.963 110.482C213.219 110.553 213.487 110.569 213.749 110.53C214.012 110.491 214.264 110.398 214.488 110.256C214.713 110.114 214.905 109.927 215.053 109.707L219.978 102.406C220.251 101.998 220.358 101.501 220.276 101.017C220.194 100.533 219.929 100.099 219.536 99.804L217.142 98.0035C216.93 97.8467 216.688 97.7354 216.432 97.6766C216.175 97.6178 215.909 97.6128 215.65 97.6618C215.391 97.7108 215.146 97.8129 214.928 97.9616C214.711 98.1102 214.527 98.3023 214.387 98.5256Z" fill="#263238" stroke="#263238" stroke-linecap="round" stroke-linejoin="round"/>
<path d="M230.294 101.875C230.294 101.875 228.953 110.472 228.575 113.758C228.197 117.044 228.296 117.755 231.06 118.07C233.823 118.385 238.388 119.789 240.179 124.021C241.971 128.252 231.564 141.062 228.476 143.826C225.388 146.59 224.011 150.317 224.695 153.234C225.379 156.15 233.454 165.585 233.103 175.154C232.752 184.724 221.184 212.623 221.184 212.623C221.184 212.623 205.763 206.375 194.627 208.463C194.627 208.463 199.884 171.499 203.008 161.759C206.132 152.018 209.31 146.743 209.058 144.654C208.806 142.566 204.916 136.471 205.862 131.322C206.807 126.172 210.129 121.662 211.677 118.862C213.226 116.062 216.548 116.098 217.754 116.234C218.96 116.369 220.671 116.747 221.526 115.441C222.381 114.136 223.146 107.402 223.146 107.402L230.294 101.875Z" fill="black" stroke="#263238" stroke-linecap="round" stroke-linejoin="round"/>
<path d="M212.38 139.199L219.239 144.159" stroke="#263238" stroke-linecap="round" stroke-linejoin="round"/>
<path d="M218.726 160.642C218.726 160.642 211.848 173.768 210.291 183.149" stroke="#263238" stroke-linecap="round" stroke-linejoin="round"/>
<path d="M210.606 174.083C210.606 174.083 208.725 182.185 207.788 189.387" stroke="#263238" stroke-linecap="round" stroke-linejoin="round"/>
<path d="M237.73 121.509C237.73 121.509 235.435 122.661 232.914 126.559C230.393 130.457 228.098 137.101 228.557 138.704C229.016 140.306 233.373 137.56 233.373 137.56C233.373 137.56 237.973 158.185 242.079 156.591C250.334 153.378 239.333 123.12 239.333 123.12C239.333 123.12 239.333 121.986 237.73 121.509Z" fill="white" stroke="#263238" stroke-linecap="round" stroke-linejoin="round"/>
<path d="M220.005 124.327C215.341 123.174 216.584 118.727 217.745 116.224H217.79C219.005 116.368 220.707 116.738 221.562 115.432C222.417 114.127 223.182 107.393 223.182 107.393L230.294 101.911C230.294 101.911 228.953 110.508 228.575 113.794C228.197 117.08 228.296 117.791 231.06 118.106C231.06 118.07 226.648 126.01 220.005 124.327Z" fill="white" stroke="#263238" stroke-linecap="round" stroke-linejoin="round"/>
<path d="M224.002 85.04C223.564 87.4838 223.823 90.0015 224.749 92.305C226.288 95.6359 232.851 99.5069 232.851 99.5069C232.851 99.5069 235.435 96.8062 235.813 99.678C236.191 102.55 234.976 105.359 233.058 105.314C231.141 105.268 230.861 103.135 230.861 103.135C229.161 105.608 226.663 107.422 223.786 108.275C218.69 109.959 216.097 109.662 215.494 105.746C214.891 101.83 215.593 97.3464 217.376 92.476C219.158 87.6057 223.29 85.1301 224.002 85.04Z" fill="white" stroke="#263238" stroke-linecap="round" stroke-linejoin="round"/>
<path d="M242.997 118.547L243.231 114.883C244.364 113.878 245.434 112.805 246.436 111.669C247.813 110.067 248.731 107.771 249.875 108.689C251.018 109.608 248.272 112.362 248.272 112.362L248.038 114.163L252.629 112.795C252.629 112.795 256.987 108.437 257.212 109.581C257.437 110.724 254.916 114.622 253.089 116.693C251.261 118.763 245.752 119.393 245.752 119.393C245.752 119.393 245.517 137.731 245.517 143.241C245.517 148.75 244.833 154.944 243.231 156.078C241.628 157.213 236.578 156.303 237.73 147.364C238.883 138.425 242.997 118.547 242.997 118.547Z" fill="white" stroke="#263238" stroke-linecap="round" stroke-linejoin="round"/>
<path d="M233.373 137.578L231.996 133.221" stroke="#263238" stroke-linecap="round" stroke-linejoin="round"/>
<path d="M108.023 83.2755C108.023 83.2755 112.155 88.5149 112.579 89.6672C112.877 90.5065 113.124 91.3634 113.317 92.2329L116.017 94.2315C116.102 94.2926 116.174 94.3705 116.228 94.4604C116.281 94.5502 116.316 94.6501 116.329 94.7539C116.343 94.8577 116.335 94.9632 116.306 95.0637C116.277 95.1643 116.228 95.2579 116.162 95.3388L114.118 97.8505C114.118 97.8505 116.017 104.152 115.918 105.052C115.819 105.953 109.221 108.194 109.221 108.194L108.608 113.02L96.0951 112.858L96.0501 103.918L91.0537 92.2149C91.0537 92.2149 95.5279 83.7706 108.023 83.2755Z" fill="white" stroke="#263238" stroke-linecap="round" stroke-linejoin="round"/>
<path d="M105.863 100.911L107.546 100.731C107.718 101.48 108.041 102.186 108.497 102.806C108.952 103.425 109.529 103.945 110.193 104.332" fill="white"/>
<path d="M105.863 100.911L107.546 100.731C107.718 101.48 108.041 102.186 108.497 102.806C108.952 103.425 109.529 103.945 110.193 104.332" stroke="#263238" stroke-linecap="round" stroke-linejoin="round"/>
<path d="M93.7094 83.5726C93.7094 83.5726 88.9831 83.7977 89.0101 90.3424C89.0371 96.8872 95.6629 102.946 96.023 103.909C96.3831 104.872 99.9301 104.422 102.424 103.495C103.818 103.04 105.02 102.131 105.836 100.911C105.836 100.911 103.45 97.4363 103.936 96.4101C104.422 95.3838 106.979 96.3651 106.979 96.3651C107.545 96.0437 108.056 95.6333 108.491 95.1497C108.924 94.5466 111.237 91.9449 109.635 90.5765C108.032 89.2081 105.539 88.3799 106.646 86.6514C107.753 84.923 111.714 83.2395 110.553 79.5215C109.392 75.8035 106.799 75.9205 104.638 77.1359C102.478 78.3512 101.884 74.4351 97.6795 76.6587C93.4753 78.8823 92.296 82.1322 93.7094 83.5726Z" fill="#263238" stroke="#263238" stroke-linecap="round" stroke-linejoin="round"/>
<path d="M99.2369 96.3921C99.1474 97.0854 99.1474 97.7873 99.2369 98.4806" stroke="white" stroke-width="0.5" stroke-linecap="round" stroke-linejoin="round"/>
<path d="M106.529 85.8772C106.529 85.8772 105.629 87.5427 102.028 90.7745C100.766 91.9066 99.8692 93.389 99.453 95.0327" stroke="white" stroke-width="0.5" stroke-linecap="round" stroke-linejoin="round"/>
<path d="M107.375 89.1812C107.375 89.1812 103.711 94.1505 101.785 95.6269" stroke="white" stroke-width="0.5" stroke-linecap="round" stroke-linejoin="round"/>
<path d="M144.294 83.8247C148.017 85.6147 151.948 86.9332 155.997 87.7497C155.997 87.7497 150.227 83.8427 144.645 82.8704C144.132 82.7984 143.853 83.5996 144.294 83.8247Z" fill="#263238" stroke="#263238" stroke-linecap="round" stroke-linejoin="round"/>
<path d="M143.223 113.407L150.101 95.798C150.101 95.798 147.4 91.3598 147.4 90.0184C147.4 88.6771 151.703 83.8518 151.703 83.8518C151.703 83.8518 152.054 81.232 153.927 82.4834C154.467 82.8553 154.902 83.3609 155.19 83.951C155.477 84.541 155.606 85.1954 155.565 85.8503C156.429 87.0679 157.214 88.3398 157.915 89.6583C158.347 90.7026 154.26 96.5092 154.26 96.5092C154.26 96.5092 153.576 112.507 151.775 118.007C149.975 123.507 149.524 124.651 148.327 126.262C147.13 127.874 141.44 125.038 141.44 125.038L143.223 113.407Z" fill="white" stroke="#263238" stroke-linecap="round" stroke-linejoin="round"/>
<path d="M111.777 283.301L122.967 287.37C123.23 287.459 123.47 287.603 123.674 287.791C123.877 287.979 124.039 288.207 124.15 288.461C124.26 288.716 124.316 288.99 124.314 289.267C124.312 289.544 124.252 289.818 124.138 290.071C123.984 290.378 123.716 290.614 123.39 290.728C121.968 291.241 107.186 296.309 102.874 294.482C102.434 294.26 102.063 293.922 101.801 293.505C101.539 293.088 101.397 292.607 101.388 292.114C101.531 288.793 101.895 285.484 102.478 282.211C102.478 282.211 107.969 284.813 111.777 283.301Z" fill="#263238" stroke="#263238" stroke-linecap="round" stroke-linejoin="round"/>
<path d="M124.156 290.08C124.274 289.845 124.339 289.587 124.347 289.324C124.355 289.061 124.305 288.8 124.201 288.558C121.104 290.062 114.523 292.879 108.527 292.987C106.146 293.134 103.756 292.931 101.434 292.384C101.491 292.826 101.653 293.248 101.907 293.615C102.16 293.981 102.498 294.282 102.892 294.491C107.231 296.291 121.986 291.25 123.408 290.737C123.734 290.623 124.002 290.387 124.156 290.08Z" fill="white" stroke="#263238" stroke-linecap="round" stroke-linejoin="round"/>
<path d="M80.7549 279.898C80.7549 279.898 79.7467 289.179 80.2868 290.098C80.8269 291.016 82.4384 291.637 85.2111 291.457C86.0611 291.438 86.8837 291.152 87.5622 290.64C88.2408 290.128 88.7411 289.415 88.9922 288.603C89.2442 287.937 88.5961 281.869 88.5781 280.807C88.56 279.745 80.7549 279.898 80.7549 279.898Z" fill="#263238" stroke="#263238" stroke-linecap="round" stroke-linejoin="round"/>
<path d="M89.0191 286.866C88.1639 288.513 87.0746 289.566 84.2478 289.62C82.7941 289.679 81.3566 289.296 80.1247 288.522C80.083 289.053 80.1379 289.586 80.2868 290.097C80.8359 290.998 82.4383 291.637 85.2111 291.457C86.0611 291.438 86.8836 291.152 87.5622 290.64C88.2408 290.128 88.741 289.415 88.9921 288.603C89.0707 288.027 89.0797 287.444 89.0191 286.866Z" fill="white" stroke="#263238" stroke-linecap="round" stroke-linejoin="round"/>
<path d="M117.764 173.102C115.136 174.402 112.366 175.39 109.509 176.046L84.689 170.311C84.689 170.311 83.0415 184.229 83.0865 186.623C83.1315 189.018 83.9868 232.113 83.9868 232.113L80.6019 280.546C80.9529 281.268 81.5069 281.873 82.196 282.285C82.8851 282.698 83.6794 282.9 84.4819 282.868C86.1291 282.861 87.7557 282.501 89.2532 281.815L99.8941 231.402L102.262 284.921C102.262 284.921 103.729 286.334 107.078 286.262C108.058 286.23 109.013 285.939 109.844 285.419C110.676 284.899 111.355 284.168 111.813 283.301C111.813 283.301 113.461 262.595 115.918 247.777C118.376 232.959 118.673 192.169 118.673 192.169L117.764 173.102Z" fill="white" stroke="#263238" stroke-linecap="round" stroke-linejoin="round"/>
<path d="M94.1595 180.403C97.4148 181.109 100.732 181.492 104.062 181.546" stroke="#263238" stroke-linecap="round" stroke-linejoin="round"/>
<path d="M84.959 177.729C84.959 177.729 86.1114 179.26 89.1632 179.26" stroke="#263238" stroke-linecap="round" stroke-linejoin="round"/>
<path d="M110.139 270.427C110.139 270.427 112.425 242.961 113.956 223.128C114.879 211.447 115.006 199.717 114.334 188.019C114.334 188.019 118.151 183.824 115.477 176.577" stroke="#263238" stroke-linecap="round" stroke-linejoin="round"/>
<path d="M110.139 273.479L108.996 282.256" stroke="#263238" stroke-linecap="round" stroke-linejoin="round"/>
<path d="M99.8671 231.411L97.1484 195.455L90.8016 189.351" stroke="#263238" stroke-linecap="round" stroke-linejoin="round"/>
<path d="M86.5705 153.369C86.7019 152.959 86.6965 152.518 86.5552 152.112C86.414 151.706 86.1444 151.357 85.7873 151.118C83.0325 149.254 76.3527 145.419 74.2192 150.47C73.5956 152.44 73.1615 154.466 72.9228 156.519C72.3287 160.561 72.5447 187.929 72.5717 190.729C72.5721 190.88 72.554 191.031 72.5177 191.179C72.2836 192.25 71.3024 196.931 71.9866 199.722C72.7518 202.9 74.2192 205.349 76.7128 206.024C79.2065 206.699 80.5659 203.818 80.1788 202.054C79.7917 200.289 80.7189 198.921 80.3318 197.156C80.0167 195.734 78.6664 192.016 78.1532 190.639C78.0293 190.299 77.9982 189.932 78.0632 189.576C78.7654 185.975 82.6995 165.783 82.9965 164.811C83.2936 163.838 85.5982 156.51 86.5705 153.369Z" fill="white" stroke="#263238" stroke-linecap="round" stroke-linejoin="round"/>
<path d="M75.9656 200.325C75.9656 200.325 79.1435 202.549 79.5126 204.601" stroke="#263238" stroke-linecap="round" stroke-linejoin="round"/>
<path d="M76.9739 198.48C76.9739 198.48 79.4946 200.127 80.1697 201.424" stroke="#263238" stroke-linecap="round" stroke-linejoin="round"/>
<path d="M77.433 196.616L78.3333 197.859C78.3333 197.859 78.7834 202.81 80.1878 202.072C81.5922 201.333 80.7639 195.329 80.7639 195.329C80.7639 195.329 80.0528 193.861 77.8562 190.359" fill="white"/>
<path d="M77.433 196.616L78.3333 197.859C78.3333 197.859 78.7834 202.81 80.1878 202.072C81.5922 201.333 80.7639 195.329 80.7639 195.329C80.7639 195.329 80.0528 193.861 77.8562 190.359" stroke="#263238" stroke-linecap="round" stroke-linejoin="round"/>
<path d="M77.271 191.44C77.7564 193.214 77.7126 195.092 77.1449 196.841C76.3343 198.365 75.4324 199.838 74.4442 201.252C75.7642 202.515 77.0001 203.862 78.1442 205.286" stroke="#263238" stroke-linecap="round" stroke-linejoin="round"/>
<path d="M78.8554 120.888L70.6902 150.893C70.6902 150.893 77.523 156.429 85.9943 156.294L91.4588 127.811C91.4588 127.811 85.3552 114.1 78.8554 120.888Z" fill="#263238" stroke="#263238" stroke-linecap="round" stroke-linejoin="round"/>
<path d="M92.3591 111.048C92.3591 111.048 80.3678 117.008 79.2425 119.708C78.3423 121.959 81.097 137.893 81.151 140.693C81.2051 143.493 83.5997 167.547 84.2479 172.202C84.8961 176.856 100.452 178.836 106.376 177.045C112.299 175.253 117.8 174.569 117.764 173.075C117.728 171.58 116.936 158.923 117.26 156.501C117.584 154.08 120.096 135.913 120.096 135.913L142.701 131.232C142.701 131.232 143.745 130.601 143.772 126.514C143.776 122.656 143.577 118.801 143.178 114.964C140.25 115.667 137.222 115.855 134.229 115.522C128.774 115.036 122.31 113.569 121.158 113.893C120.006 114.217 112.155 112.578 109.572 112.254C105.98 111.768 96.8603 108.725 92.3591 111.048Z" fill="#263238" stroke="#263238" stroke-linecap="round" stroke-linejoin="round"/>
<path d="M82.2943 154.845L79.1525 128.495" stroke="white" stroke-width="0.5" stroke-linecap="round" stroke-linejoin="round"/>
<path d="M80.0077 139.964L78.4773 136.534" stroke="white" stroke-width="0.5" stroke-linecap="round" stroke-linejoin="round"/>
<path d="M120.096 135.868L111.282 137.29" stroke="white" stroke-width="0.5" stroke-linecap="round" stroke-linejoin="round"/>
<path d="M118.151 136.534L111.669 142.638" stroke="white" stroke-width="0.5" stroke-linecap="round" stroke-linejoin="round"/>
<path d="M137.983 116.314C137.983 116.314 131.88 125.47 117.008 128.918" stroke="white" stroke-width="0.5" stroke-linecap="round" stroke-linejoin="round"/>
</svg>
