<svg width="569" height="532" viewBox="0 0 569 532" fill="none" xmlns="http://www.w3.org/2000/svg">
<path fill-rule="evenodd" clip-rule="evenodd" d="M387.921 291.255C431.817 289.105 481.249 272.741 512.635 303.565C546.572 336.893 549.497 391.397 536.532 437.203C524.344 480.261 491.501 516.921 448.658 529.587C411.573 540.552 378.74 511.589 344.265 494.047C311.332 477.289 271.396 467.492 258.482 432.818C243.885 393.623 249.407 345.923 277.612 315.076C304.344 285.84 348.394 293.191 387.921 291.255Z" fill="#E7539D" fill-opacity="0.8"/>
<path fill-rule="evenodd" clip-rule="evenodd" d="M255.813 287.499C238.365 244.127 227.771 190.974 256.578 154.195C286.045 116.573 341.586 107.572 388.052 118.666C426.36 127.812 436.163 173.535 462.054 203.252C493.103 238.889 553.282 257.832 550.413 305.021C547.335 355.655 498.976 397.324 449.572 408.56C406.693 418.312 374.115 376.919 336.799 353.604C305.712 334.181 269.503 321.529 255.813 287.499Z" fill="#F9AD14" fill-opacity="0.8"/>
<path fill-rule="evenodd" clip-rule="evenodd" d="M194.156 121.104C240.08 126.408 297.398 98.3073 326.957 133.832C356.56 169.408 326.579 221.924 315.385 266.797C303.868 312.969 303.603 369.891 262.206 393.411C220.885 416.889 171.59 388.809 126.337 374.208C84.5625 360.73 27.6198 355.704 15.071 313.677C2.53563 271.694 58.9145 243.123 75.0363 202.396C87.4846 170.949 68.8373 126.322 96.7857 107.249C124.919 88.0496 160.3 117.194 194.156 121.104Z" fill="#3CBCF0" fill-opacity="0.8"/>
<path fill-rule="evenodd" clip-rule="evenodd" d="M144.46 472.584C119.489 469.474 103.006 446.597 88.9749 425.686C77.9527 409.26 79.0331 389.652 75.7229 370.144C71.1527 343.209 48.7164 312.792 66.2693 291.872C83.7143 271.08 117.881 282.804 144.46 288.218C164.787 292.359 178.908 306.885 196.21 318.341C221.833 335.306 263.383 339.77 268.195 370.144C272.998 400.462 239.349 421.911 215.718 441.475C194.959 458.661 171.193 475.914 144.46 472.584Z" fill="#385CA6" fill-opacity="0.8"/>
<path fill-rule="evenodd" clip-rule="evenodd" d="M491 177.577C490.966 190.556 482.909 200.482 475.825 210.24C467.989 221.033 460.59 234.077 448.784 235.722C436.091 237.491 422.781 230.704 414.69 218.759C407.12 207.582 409.222 192.017 409.401 177.577C409.576 163.48 407.458 147.598 415.695 137.608C423.938 127.61 437.157 128.444 448.784 129.812C459.088 131.025 468.44 136.159 475.996 144.707C483.855 153.599 491.034 164.57 491 177.577Z" fill="#C44D87" fill-opacity="0.8"/>
<path fill-rule="evenodd" clip-rule="evenodd" d="M113.756 69.8224C126.728 74.1272 137.423 82.5078 144.911 93.8094C152.124 104.697 156.931 117.669 153.788 130.245C150.796 142.215 137.731 147.235 129.288 156.309C115.978 170.614 110.752 198.594 91.0138 197.714C71.7607 196.855 69.7662 168.562 58.4364 153.148C46.7273 137.217 22.7036 126.783 24.528 107.26C26.3741 87.5055 47.9151 75.5233 66.4158 67.7609C81.4891 61.4365 98.1723 64.6511 113.756 69.8224Z" fill="#C8CBC5" fill-opacity="0.8"/>
<path fill-rule="evenodd" clip-rule="evenodd" d="M489.509 0.0271399C503.859 -0.477616 517.497 6.09947 527.663 16.3206C537.843 26.5552 544.519 40.2974 543.968 54.7795C543.435 68.803 535.211 81.0292 524.844 90.3968C515.086 99.2146 502.613 103.761 489.509 103.988C476.147 104.22 462.547 101.006 452.938 91.6432C443.187 82.1426 438.82 68.4478 439.006 54.7795C439.189 41.3039 444.824 28.784 453.928 18.9142C463.417 8.62743 475.583 0.516989 489.509 0.0271399Z" fill="#EE2851" fill-opacity="0.8"/>
</svg>
